<svg width="101" height="101" viewBox="0 0 101 101" fill="none" xmlns="http://www.w3.org/2000/svg">
<path d="M48.3125 91.6317L49.3958 89.8067L44.0125 86.6234L42.9292 88.4484L48.3125 91.6317ZM34.6042 89.8067L35.6875 91.6317L41.0667 88.4484L39.9833 86.6234L34.6042 89.8067ZM42.9333 88.4484C42.8377 88.6091 42.7006 88.7411 42.5364 88.8305C42.3721 88.92 42.1869 88.9635 42 88.9567C41.8131 88.9635 41.6278 88.92 41.4636 88.8305C41.2994 88.7411 41.1623 88.6091 41.0667 88.4484L35.6917 91.6317C38.5083 96.3984 45.4917 96.3984 48.3125 91.6317L42.9333 88.4484ZM37 28.54H47V22.29H37V28.54ZM72.2083 53.7484V57.0817H78.4583V53.7484H72.2083ZM11.7917 57.0817V53.7484H5.54166V57.0817H11.7917ZM5.54166 57.0817C5.54166 60.9234 5.54166 63.9567 5.70833 66.415C5.87499 68.8984 6.22916 71.015 7.04999 72.99L12.8208 70.5984C12.3708 69.5109 12.0917 68.1525 11.9458 65.99C11.7917 63.7942 11.7917 61.0067 11.7917 57.0817H5.54166ZM26.6375 78.8942C23.3375 78.79 21.5417 78.5025 20.15 77.9275L17.7583 83.6984C20.2458 84.7317 22.9875 85.0317 26.4375 85.1442L26.6375 78.8942ZM7.04999 72.99C9.05868 77.8379 12.9104 81.6897 17.7583 83.6984L20.15 77.9275C18.5065 77.2465 17.0134 76.2484 15.7558 74.9901C14.4982 73.7318 13.5009 72.2422 12.8208 70.5984L7.04999 72.99ZM72.2083 57.0817C72.2083 61.0067 72.2083 63.7942 72.0583 65.99C71.9083 68.1567 71.6292 69.5109 71.1792 70.5984L76.95 72.99C77.7708 71.015 78.1208 68.8984 78.2917 66.415C78.4583 63.9567 78.4583 60.9234 78.4583 57.0817H72.2083ZM57.5625 85.1442C61.0125 85.0317 63.7542 84.7275 66.2417 83.6984L63.85 77.9275C62.4542 78.5025 60.6625 78.79 57.3625 78.8942L57.5625 85.1442ZM71.1792 70.5984C70.4982 72.2418 69.5 73.735 68.2417 74.9926C66.9834 76.2501 65.4897 77.2475 63.8458 77.9275L66.2417 83.6984C71.0896 81.6897 74.9413 77.8379 76.95 72.99L71.1792 70.5984ZM47 28.54C52.5167 28.54 56.4333 28.54 59.4792 28.8317C62.4792 29.1192 64.3125 29.6609 65.7417 30.5359L69.0083 25.2067C66.4292 23.6234 63.5292 22.94 60.0708 22.6109C56.6625 22.2859 52.3958 22.29 47 22.29V28.54ZM78.4583 53.7484C78.4583 48.3525 78.4583 44.0859 78.1375 40.6775C77.8083 37.2192 77.1208 34.3234 75.5417 31.7442L70.2125 35.0067C71.0875 36.4359 71.6292 38.2692 71.9167 41.2692C72.2083 44.3109 72.2083 48.2317 72.2083 53.7484H78.4583ZM65.7417 30.5359C67.5639 31.6525 69.0959 33.1845 70.2125 35.0067L75.5417 31.7442C73.9098 29.0815 71.6711 26.8385 69.0083 25.2067L65.7417 30.5359ZM37 22.29C31.6042 22.29 27.3375 22.29 23.9292 22.6109C20.4708 22.94 17.5708 23.6275 14.9917 25.2067L18.2583 30.5359C19.6875 29.6609 21.5208 29.1192 24.5208 28.8317C27.5625 28.54 31.4833 28.54 37 28.54V22.29ZM11.7917 53.7484C11.7917 48.2317 11.7917 44.315 12.0833 41.2692C12.3708 38.2692 12.9125 36.4359 13.7875 35.0067L8.45833 31.74C6.87499 34.3192 6.19166 37.2192 5.86249 40.6775C5.53749 44.0859 5.54166 48.3525 5.54166 53.7484H11.7917ZM14.9917 25.2067C12.3289 26.8385 10.0901 29.0773 8.45833 31.74L13.7875 35.0067C14.9041 33.1845 16.4361 31.6525 18.2583 30.5359L14.9917 25.2067ZM39.9875 86.6234C39.15 85.2067 38.4167 83.965 37.7042 82.9817C36.9735 81.9047 36.0218 80.9957 34.9125 80.315L31.7292 85.6984C31.9208 85.8109 32.1875 86.0192 32.6458 86.6567C33.1458 87.3442 33.7125 88.2942 34.6042 89.8067L39.9875 86.6234ZM26.4375 85.1442C28.2958 85.2025 29.4792 85.2442 30.3833 85.3525C31.2333 85.4567 31.5542 85.5942 31.7292 85.6984L34.9083 80.3192C33.7 79.6067 32.4333 79.3067 31.1375 79.1525C29.8958 78.9984 28.3833 78.9525 26.6375 78.8942L26.4375 85.1442ZM49.3958 89.8067C50.2875 88.2942 50.8542 87.3442 51.3542 86.6567C51.8125 86.0192 52.0792 85.8109 52.2708 85.6984L49.0917 80.3192C47.9824 80.9998 47.0307 81.9089 46.3 82.9859C45.5833 83.965 44.85 85.2109 44.0125 86.6234L49.3958 89.8067ZM57.3625 78.8942C55.6167 78.9525 54.1042 78.9984 52.8625 79.1484C51.5708 79.3067 50.2958 79.6109 49.0917 80.3192L52.2708 85.6984C52.4458 85.5942 52.7667 85.4567 53.6167 85.3525C54.5167 85.2442 55.7042 85.2025 57.5625 85.1442L57.3625 78.8942Z" fill="#3A2640"/>
<path d="M27.4583 54.582H27.4917M42 54.582H42.0375M56.5458 54.582H56.5833" stroke="#7D053A" stroke-width="9" stroke-linecap="round" stroke-linejoin="round"/>
<path d="M56.0625 11.8691H65.4375V5.61914H56.0625V11.8691ZM88.875 35.3066V38.4316H95.125V35.3066H88.875ZM88.875 38.4316C88.875 42.115 88.875 44.7233 88.7333 46.765C88.5958 48.79 88.3333 50.0358 87.925 51.0275L93.6958 53.4191C94.475 51.54 94.8083 49.5316 94.9667 47.1941C95.125 44.8858 95.125 42.0275 95.125 38.4316H88.875ZM87.925 51.0275C87.2968 52.5445 86.3759 53.9229 85.2148 55.084C84.0538 56.245 82.6754 57.1659 81.1583 57.7941L83.55 63.5691C85.8248 62.6264 87.8916 61.2448 89.6324 59.5033C91.3733 57.7617 92.754 55.6943 93.6958 53.4191L87.925 51.0275ZM65.4375 11.8691C70.6125 11.8691 74.2708 11.8733 77.1208 12.1483C79.9167 12.415 81.6 12.915 82.9042 13.715L86.1708 8.38581C83.7208 6.88581 80.9667 6.23581 77.7125 5.92747C74.5042 5.61914 70.4917 5.62331 65.4375 5.62331V11.8691ZM95.125 35.3108C95.125 30.2566 95.125 26.2483 94.8208 23.0358C94.5125 19.7816 93.8625 17.0275 92.3625 14.5775L87.0292 17.8441C87.8333 19.1483 88.3333 20.8316 88.6 23.6275C88.8708 26.4733 88.875 30.1358 88.875 35.3108H95.125ZM82.9042 13.715C84.5852 14.7454 85.9987 16.163 87.0292 17.8441L92.3625 14.5775C90.815 12.0534 88.696 9.93157 86.1708 8.38581L82.9042 13.715ZM56.0625 5.62331C51.0083 5.62331 47 5.62331 43.7875 5.92331C40.5333 6.23581 37.7792 6.88164 35.3292 8.38581L38.5917 13.7191C39.9 12.915 41.5833 12.415 44.3833 12.1483C47.225 11.8775 50.8833 11.8691 56.0625 11.8691V5.62331ZM35.3292 8.38581C32.805 9.93327 30.6833 12.0565 29.1375 14.5816L34.4667 17.8483C35.4971 16.1672 36.9106 14.7496 38.5917 13.7191L35.3292 8.38581ZM32.8333 22.29C33.8333 18.5942 33.4875 19.4441 34.4667 17.8483L29.1375 14.5816C27.3167 17.5525 26.5541 18.1484 26.3333 22.415L32.8333 22.29ZM78.3712 64.915C81.567 64.8067 81.2042 64.5483 83.55 63.5775L81.1583 57.8025C79.9 58.3233 78.4581 58.415 78.4581 58.415L78.3712 64.915Z" fill="#3A2640"/>
</svg>
