<svg width="91" height="91" viewBox="0 0 91 91" fill="none" xmlns="http://www.w3.org/2000/svg">
<path d="M51.0625 6.86914H60.4375V0.619141H51.0625V6.86914ZM83.875 30.3066V33.4316H90.125V30.3066H83.875ZM83.875 33.4316C83.875 37.115 83.875 39.7233 83.7333 41.765C83.5958 43.79 83.3333 45.0358 82.925 46.0275L88.6958 48.4191C89.475 46.54 89.8083 44.5316 89.9667 42.1941C90.125 39.8858 90.125 37.0275 90.125 33.4316H83.875ZM82.925 46.0275C82.2968 47.5445 81.3759 48.9229 80.2148 50.084C79.0538 51.245 77.6754 52.1659 76.1583 52.7941L78.55 58.5691C80.8248 57.6264 82.8916 56.2448 84.6324 54.5033C86.3733 52.7617 87.754 50.6943 88.6958 48.4191L82.925 46.0275ZM60.4375 6.86914C65.6125 6.86914 69.2708 6.87331 72.1208 7.14831C74.9167 7.41497 76.6 7.91497 77.9042 8.71497L81.1708 3.38581C78.7208 1.88581 75.9667 1.23581 72.7125 0.927474C69.5042 0.619141 65.4917 0.623307 60.4375 0.623307V6.86914ZM90.125 30.3108C90.125 25.2566 90.125 21.2483 89.8208 18.0358C89.5125 14.7816 88.8625 12.0275 87.3625 9.57747L82.0292 12.8441C82.8333 14.1483 83.3333 15.8316 83.6 18.6275C83.8708 21.4733 83.875 25.1358 83.875 30.3108H90.125ZM77.9042 8.71497C79.5852 9.74539 80.9987 11.163 82.0292 12.8441L87.3625 9.57747C85.815 7.05336 83.696 4.93157 81.1708 3.38581L77.9042 8.71497ZM51.0625 0.623307C46.0083 0.623307 42 0.623308 38.7875 0.923308C35.5333 1.23581 32.7792 1.88164 30.3292 3.38581L33.5917 8.71914C34.9 7.91497 36.5833 7.41497 39.3833 7.14831C42.225 6.87747 45.8833 6.86914 51.0625 6.86914V0.623307ZM30.3292 3.38581C27.805 4.93327 25.6833 7.05648 24.1375 9.58164L29.4667 12.8483C30.4971 11.1672 31.9106 9.74956 33.5917 8.71914L30.3292 3.38581ZM27.7583 20.5816C27.9667 16.5816 28.4875 14.4441 29.4667 12.8483L24.1375 9.58164C22.3167 12.5525 21.7375 15.99 21.5167 20.2566L27.7583 20.5816ZM70.4375 59.94C73.6333 59.8316 76.2042 59.5483 78.55 58.5775L76.1583 52.8025C74.9 53.3233 73.2667 53.5941 70.2292 53.6941L70.4375 59.94Z" fill="#3A2640"/>
<path d="M43.3125 86.6317L44.3958 84.8067L39.0125 81.6234L37.9292 83.4484L43.3125 86.6317ZM29.6042 84.8067L30.6875 86.6317L36.0667 83.4484L34.9833 81.6234L29.6042 84.8067ZM37.9333 83.4484C37.8377 83.6091 37.7006 83.7411 37.5364 83.8305C37.3721 83.92 37.1869 83.9636 37 83.9567C36.8131 83.9636 36.6278 83.92 36.4636 83.8305C36.2994 83.7411 36.1623 83.6091 36.0667 83.4484L30.6917 86.6317C33.5083 91.3984 40.4917 91.3984 43.3125 86.6317L37.9333 83.4484ZM32 23.54H42V17.29H32V23.54ZM67.2083 48.7484V52.0817H73.4583V48.7484H67.2083ZM6.79166 52.0817V48.7484H0.541659V52.0817H6.79166ZM0.541659 52.0817C0.541659 55.9234 0.541659 58.9567 0.708326 61.415C0.874992 63.8984 1.22916 66.015 2.04999 67.99L7.82083 65.5984C7.37083 64.5109 7.09166 63.1525 6.94583 60.99C6.79166 58.7942 6.79166 56.0067 6.79166 52.0817H0.541659ZM21.6375 73.8942C18.3375 73.79 16.5417 73.5025 15.15 72.9275L12.7583 78.6984C15.2458 79.7317 17.9875 80.0317 21.4375 80.1442L21.6375 73.8942ZM2.04999 67.99C4.05868 72.8379 7.91043 76.6897 12.7583 78.6984L15.15 72.9275C13.5065 72.2465 12.0134 71.2484 10.7558 69.9901C9.49822 68.7318 8.50091 67.2422 7.82083 65.5984L2.04999 67.99ZM67.2083 52.0817C67.2083 56.0067 67.2083 58.7942 67.0583 60.99C66.9083 63.1567 66.6292 64.5109 66.1792 65.5984L71.95 67.99C72.7708 66.015 73.1208 63.8984 73.2917 61.415C73.4583 58.9567 73.4583 55.9234 73.4583 52.0817H67.2083ZM52.5625 80.1442C56.0125 80.0317 58.7542 79.7275 61.2417 78.6984L58.85 72.9275C57.4542 73.5025 55.6625 73.79 52.3625 73.8942L52.5625 80.1442ZM66.1792 65.5984C65.4982 67.2418 64.5 68.735 63.2417 69.9926C61.9834 71.2501 60.4897 72.2475 58.8458 72.9275L61.2417 78.6984C66.0896 76.6897 69.9413 72.8379 71.95 67.99L66.1792 65.5984ZM42 23.54C47.5167 23.54 51.4333 23.54 54.4792 23.8317C57.4792 24.1192 59.3125 24.6609 60.7417 25.5359L64.0083 20.2067C61.4292 18.6234 58.5292 17.94 55.0708 17.6109C51.6625 17.2859 47.3958 17.29 42 17.29V23.54ZM73.4583 48.7484C73.4583 43.3525 73.4583 39.0859 73.1375 35.6775C72.8083 32.2192 72.1208 29.3234 70.5417 26.7442L65.2125 30.0067C66.0875 31.4359 66.6292 33.2692 66.9167 36.2692C67.2083 39.3109 67.2083 43.2317 67.2083 48.7484H73.4583ZM60.7417 25.5359C62.5639 26.6525 64.0959 28.1845 65.2125 30.0067L70.5417 26.7442C68.9098 24.0815 66.6711 21.8385 64.0083 20.2067L60.7417 25.5359ZM32 17.29C26.6042 17.29 22.3375 17.29 18.9292 17.6109C15.4708 17.94 12.5708 18.6275 9.99166 20.2067L13.2583 25.5359C14.6875 24.6609 16.5208 24.1192 19.5208 23.8317C22.5625 23.54 26.4833 23.54 32 23.54V17.29ZM6.79166 48.7484C6.79166 43.2317 6.79166 39.315 7.08333 36.2692C7.37083 33.2692 7.91249 31.4359 8.78749 30.0067L3.45833 26.74C1.87499 29.3192 1.19166 32.2192 0.862493 35.6775C0.537493 39.0859 0.541659 43.3525 0.541659 48.7484H6.79166ZM9.99166 20.2067C7.32893 21.8385 5.09015 24.0773 3.45833 26.74L8.78749 30.0067C9.90411 28.1845 11.4361 26.6525 13.2583 25.5359L9.99166 20.2067ZM34.9875 81.6234C34.15 80.2067 33.4167 78.965 32.7042 77.9817C31.9735 76.9047 31.0218 75.9957 29.9125 75.315L26.7292 80.6984C26.9208 80.8109 27.1875 81.0192 27.6458 81.6567C28.1458 82.3442 28.7125 83.2942 29.6042 84.8067L34.9875 81.6234ZM21.4375 80.1442C23.2958 80.2025 24.4792 80.2442 25.3833 80.3525C26.2333 80.4567 26.5542 80.5942 26.7292 80.6984L29.9083 75.3192C28.7 74.6067 27.4333 74.3067 26.1375 74.1525C24.8958 73.9984 23.3833 73.9525 21.6375 73.8942L21.4375 80.1442ZM44.3958 84.8067C45.2875 83.2942 45.8542 82.3442 46.3542 81.6567C46.8125 81.0192 47.0792 80.8109 47.2708 80.6984L44.0917 75.3192C42.9824 75.9998 42.0307 76.9089 41.3 77.9859C40.5833 78.965 39.85 80.2109 39.0125 81.6234L44.3958 84.8067ZM52.3625 73.8942C50.6167 73.9525 49.1042 73.9984 47.8625 74.1484C46.5708 74.3067 45.2958 74.6109 44.0917 75.3192L47.2708 80.6984C47.4458 80.5942 47.7667 80.4567 48.6167 80.3525C49.5167 80.2442 50.7042 80.2025 52.5625 80.1442L52.3625 73.8942Z" fill="#3A2640"/>
<path d="M22.4583 49.582H22.4917M37 49.582H37.0375M51.5458 49.582H51.5833" stroke="#3A2640" stroke-width="9" stroke-linecap="round" stroke-linejoin="round"/>
</svg>
