<svg width="88" height="87" viewBox="0 0 88 87" fill="none" xmlns="http://www.w3.org/2000/svg">
<path d="M79.4166 41.332C79.4166 33.9152 77.2173 26.665 73.0967 20.4982C68.9762 14.3313 63.1195 9.52485 56.2673 6.68657C49.415 3.84828 41.875 3.10565 34.6008 4.5526C27.3265 5.99955 20.6446 9.57107 15.4001 14.8155C10.1557 20.06 6.58414 26.7419 5.13719 34.0162C3.69025 41.2905 4.43287 48.8304 7.27116 55.6827C10.1094 62.5349 14.9159 68.3916 21.0828 72.5122C27.2496 76.6327 34.4998 78.832 41.9166 78.832M41.9166 20.4987V36.182C41.9167 37.7299 42.3479 39.2472 43.1618 40.5638C43.9758 41.8804 45.1403 42.9443 46.525 43.6362L58.5833 49.6654M71.0833 57.9987V70.4987M71.0833 70.4987V82.9987M71.0833 70.4987H58.5833M71.0833 70.4987H83.5833" stroke="#3A2640" stroke-width="7" stroke-linecap="round" stroke-linejoin="round"/>
<path d="M71.0833 57.999V70.499M71.0833 70.499V82.999M71.0833 70.499H58.5833M71.0833 70.499H83.5833" stroke="#7D053A" stroke-width="7" stroke-linecap="round" stroke-linejoin="round"/>
</svg>
