<svg width="89" height="89" viewBox="0 0 89 89" fill="none" xmlns="http://www.w3.org/2000/svg">
<path d="M66.5417 88.165C72.3434 88.165 77.9073 85.8604 82.0097 81.758C86.1121 77.6556 88.4167 72.0917 88.4167 66.29C88.4167 60.4884 86.1121 54.9244 82.0097 50.8221C77.9073 46.7197 72.3434 44.415 66.5417 44.415C60.7401 44.415 55.1761 46.7197 51.0738 50.8221C46.9714 54.9244 44.6667 60.4884 44.6667 66.29C44.6667 72.0917 46.9714 77.6556 51.0738 81.758C55.1761 85.8604 60.7401 88.165 66.5417 88.165ZM77.0355 60.0838L68.6917 73.9963C68.3251 74.6075 67.8239 75.1271 67.2262 75.5155C66.6285 75.9038 65.9502 76.1508 65.2427 76.2376C64.5352 76.3244 63.8173 76.2487 63.1435 76.0162C62.4697 75.7838 61.8578 75.4008 61.3542 74.8963L56.5167 70.065C55.93 69.4782 55.6003 68.6824 55.6003 67.8525C55.6003 67.0227 55.93 66.2268 56.5167 65.64C57.1035 65.0532 57.8994 64.7236 58.7292 64.7236C59.5591 64.7236 60.355 65.0532 60.9417 65.64L64.3605 69.065L71.673 56.8713C71.8839 56.5192 72.1622 56.2121 72.4918 55.9675C72.8214 55.7229 73.196 55.5456 73.5941 55.4458C73.9922 55.346 74.4061 55.3256 74.8122 55.3857C75.2182 55.4458 75.6084 55.5854 75.9605 55.7963C76.3126 56.0072 76.6197 56.2854 76.8643 56.6151C77.1089 56.9447 77.2861 57.3193 77.386 57.7174C77.4858 58.1155 77.5062 58.5294 77.4461 58.9355C77.386 59.3415 77.2464 59.7317 77.0355 60.0838ZM57.1667 19.415C57.1667 24.3878 55.1913 29.157 51.675 32.6733C48.1587 36.1896 43.3896 38.165 38.4167 38.165C33.4439 38.165 28.6748 36.1896 25.1585 32.6733C21.6422 29.157 19.6667 24.3878 19.6667 19.415C19.6667 14.4422 21.6422 9.67309 25.1585 6.15679C28.6748 2.64048 33.4439 0.665039 38.4167 0.665039C43.3896 0.665039 48.1587 2.64048 51.675 6.15679C55.1913 9.67309 57.1667 14.4422 57.1667 19.415ZM38.4167 31.915C41.732 31.915 44.9114 30.5981 47.2556 28.2539C49.5998 25.9097 50.9167 22.7302 50.9167 19.415C50.9167 16.0998 49.5998 12.9204 47.2556 10.5762C44.9114 8.232 41.732 6.91504 38.4167 6.91504C35.1015 6.91504 31.9221 8.232 29.5779 10.5762C27.2337 12.9204 25.9167 16.0998 25.9167 19.415C25.9167 22.7302 27.2337 25.9097 29.5779 28.2539C31.9221 30.5981 35.1015 31.915 38.4167 31.915Z" fill="#3A2640"/>
<path d="M40.0167 75.665C39.3011 73.635 38.8209 71.5296 38.5855 69.39H7.16675C7.173 67.8525 8.12925 63.2275 12.3667 58.99C16.4417 54.915 24.1105 50.665 38.4167 50.665C40.0417 50.665 41.5834 50.7171 43.0417 50.8213C44.4542 48.69 46.1417 46.7588 48.0667 45.0838C45.1501 44.6463 41.9334 44.4234 38.4167 44.415C7.16675 44.415 0.916748 63.165 0.916748 69.415C0.916748 75.665 7.16675 75.665 7.16675 75.665H40.0167Z" fill="#3A2640"/>
</svg>
