<svg width="89" height="89" viewBox="0 0 89 89" fill="none" xmlns="http://www.w3.org/2000/svg">
<path d="M57.0417 19.29C57.0417 24.2628 55.0663 29.032 51.55 32.5483C48.0337 36.0646 43.2646 38.04 38.2917 38.04C33.3189 38.04 28.5498 36.0646 25.0335 32.5483C21.5172 29.032 19.5417 24.2628 19.5417 19.29C19.5417 14.3172 21.5172 9.54809 25.0335 6.03179C28.5498 2.51548 33.3189 0.540039 38.2917 0.540039C43.2646 0.540039 48.0337 2.51548 51.55 6.03179C55.0663 9.54809 57.0417 14.3172 57.0417 19.29ZM38.2917 31.79C41.607 31.79 44.7864 30.4731 47.1306 28.1289C49.4748 25.7847 50.7917 22.6052 50.7917 19.29C50.7917 15.9748 49.4748 12.7954 47.1306 10.4512C44.7864 8.107 41.607 6.79004 38.2917 6.79004C34.9765 6.79004 31.7971 8.107 29.4529 10.4512C27.1087 12.7954 25.7917 15.9748 25.7917 19.29C25.7917 22.6052 27.1087 25.7847 29.4529 28.1289C31.7971 30.4731 34.9765 31.79 38.2917 31.79Z" fill="#3A2640"/>
<path d="M39.8917 75.54C39.1761 73.51 38.6959 71.4046 38.4605 69.265H7.04175C7.048 67.7275 8.00425 63.1025 12.2417 58.865C16.3167 54.79 23.9855 50.54 38.2917 50.54C39.9167 50.54 41.4584 50.5921 42.9167 50.6963C44.3292 48.565 46.0167 46.6338 47.9417 44.9588C45.0251 44.5213 41.8084 44.2984 38.2917 44.29C7.04175 44.29 0.791748 63.04 0.791748 69.29C0.791748 75.54 7.04175 75.54 7.04175 75.54H39.8917Z" fill="#3A2640"/>
<path d="M66.6667 88.29C72.4684 88.29 78.0323 85.9854 82.1347 81.883C86.2371 77.7806 88.5417 72.2167 88.5417 66.415C88.5417 60.6134 86.2371 55.0494 82.1347 50.9471C78.0323 46.8447 72.4684 44.54 66.6667 44.54C60.8651 44.54 55.3011 46.8447 51.1988 50.9471C47.0964 55.0494 44.7917 60.6134 44.7917 66.415C44.7917 72.2167 47.0964 77.7806 51.1988 81.883C55.3011 85.9854 60.8651 88.29 66.6667 88.29ZM77.1605 60.2088L68.8167 74.1213C68.4501 74.7325 67.9489 75.2521 67.3512 75.6405C66.7535 76.0288 66.0752 76.2758 65.3677 76.3626C64.6602 76.4494 63.9423 76.3737 63.2685 76.1412C62.5947 75.9088 61.9828 75.5258 61.4792 75.0213L56.6417 70.19C56.055 69.6032 55.7253 68.8074 55.7253 67.9775C55.7253 67.1477 56.055 66.3518 56.6417 65.765C57.2285 65.1782 58.0244 64.8486 58.8542 64.8486C59.6841 64.8486 60.48 65.1782 61.0667 65.765L64.4855 69.19L71.798 56.9963C72.0089 56.6442 72.2872 56.3371 72.6168 56.0925C72.9464 55.8479 73.321 55.6706 73.7191 55.5708C74.1172 55.471 74.5311 55.4506 74.9372 55.5107C75.3432 55.5708 75.7334 55.7104 76.0855 55.9213C76.4376 56.1322 76.7447 56.4104 76.9893 56.7401C77.2339 57.0697 77.4111 57.4443 77.511 57.8424C77.6108 58.2405 77.6312 58.6544 77.5711 59.0605C77.511 59.4665 77.3714 59.8567 77.1605 60.2088Z" fill="#7D053A"/>
</svg>
