<svg width="1440" height="140" viewBox="0 0 1440 140" fill="none" xmlns="http://www.w3.org/2000/svg">
<path d="M0 0C0 0 91.5 41.5 158.5 44C225.5 46.5 304.5 26.5 383.5 28C462.5 29.5 649 90 720.5 89.5C792 89 968 34 1084.5 28C1201 22 1305.5 50 1361.5 44C1417.5 38 1440 28 1440 28V117H0V0Z" fill="#AD2550"/>
<path d="M0 23C0 23 55.5 60.5 122.5 63C189.5 65.5 275.5 41.5 354.5 43C433.5 44.5 600 106 671.5 105.5C743 105 929 57 1045.5 51C1162 45 1249 69.5 1305 63.5C1361 57.5 1440 40.5 1440 40.5V140H0V23Z" fill="#7E053A"/>
</svg>
