<svg width="1440" height="134" viewBox="0 0 1440 134" fill="none" xmlns="http://www.w3.org/2000/svg">
<path d="M0 0C0 0 91.5 41.5 158.5 44C225.5 46.5 304.5 26.5 383.5 28C462.5 29.5 649 90 720.5 89.5C792 89 968 34 1084.5 28C1201 22 1305.5 50 1361.5 44C1417.5 38 1440 28 1440 28V117H0V0Z" fill="#FFFCFA"/>
<path d="M0 17C0 17 55.5 54.5 122.5 57C189.5 59.5 275.5 35.5 354.5 37C433.5 38.5 600 100 671.5 99.5C743 99 929 51 1045.5 45C1162 39 1249 63.5 1305 57.5C1361 51.5 1440 34.5 1440 34.5V134H0V17Z" fill="white"/>
</svg>
